<svg xmlns="http://www.w3.org/2000/svg" viewBox="0 0 400 400" width="400" height="400">
  <defs>
    <linearGradient id="bg" x1="0%" y1="0%" x2="100%" y2="100%">
      <stop offset="0%" style="stop-color:#f8f9fa"/>
      <stop offset="100%" style="stop-color:#e9ecef"/>
    </linearGradient>
  </defs>
  <rect width="400" height="400" fill="url(#bg)" rx="12"/>
  <!-- Pick 1 - Red -->
  <path d="M 130 100 Q 100 140 115 200 Q 130 230 130 230 Q 130 230 145 200 Q 160 140 130 100 Z" fill="#e63946" opacity="0.9" transform="rotate(-15, 130, 165)"/>
  <!-- Pick 2 - Blue -->
  <path d="M 200 90 Q 170 130 185 190 Q 200 220 200 220 Q 200 220 215 190 Q 230 130 200 90 Z" fill="#0984e3" opacity="0.9"/>
  <!-- Pick 3 - Yellow -->
  <path d="M 270 100 Q 240 140 255 200 Q 270 230 270 230 Q 270 230 285 200 Q 300 140 270 100 Z" fill="#fdcb6e" opacity="0.9" transform="rotate(15, 270, 165)"/>
  <!-- Pick 4 - Green -->
  <path d="M 160 200 Q 130 240 145 300 Q 160 330 160 330 Q 160 330 175 300 Q 190 240 160 200 Z" fill="#00b894" opacity="0.85" transform="rotate(-10, 160, 265)"/>
  <!-- Pick 5 - Orange -->
  <path d="M 240 200 Q 210 240 225 300 Q 240 330 240 330 Q 240 330 255 300 Q 270 240 240 200 Z" fill="#e17055" opacity="0.85" transform="rotate(10, 240, 265)"/>
  <text x="200" y="380" text-anchor="middle" font-family="Inter,sans-serif" font-size="16" fill="#636e72" font-weight="600">Bộ phím gảy</text>
</svg>
